<svg id="Layer_1" data-name="Layer 1" xmlns="http://www.w3.org/2000/svg" viewBox="0 0 76.58 80"><defs><style>.cls-1{fill:none;stroke:#d67456;stroke-miterlimit:10;stroke-width:3px;}</style></defs><title>fine-tune</title><path class="cls-1" d="M746,3837v-21.58a3.42,3.42,0,0,0-6.84,0V3837a7.94,7.94,0,0,0,0,15.86v32.71a3.42,3.42,0,0,0,6.84,0v-32.71A7.94,7.94,0,0,0,746,3837Z" transform="translate(-729.92 -3810.5)"/><path class="cls-1" d="M771.63,3857.54v-42.12a3.42,3.42,0,0,0-6.84,0v42.12a7.94,7.94,0,0,0,0,15.86v12.17a3.42,3.42,0,0,0,6.84,0V3873.4A7.94,7.94,0,0,0,771.63,3857.54Z" transform="translate(-729.92 -3810.5)"/><path class="cls-1" d="M797.3,3827.6v-12.17a3.42,3.42,0,0,0-6.84,0v12.17a7.94,7.94,0,0,0,0,15.86v42.12a3.42,3.42,0,0,0,6.84,0v-42.12A7.94,7.94,0,0,0,797.3,3827.6Z" transform="translate(-729.92 -3810.5)"/></svg>